<?xml version="1.0" encoding="UTF-8" standalone="no"?>
<!-- Created with Inkscape (http://www.inkscape.org/) -->
<svg id="svg2" xmlns:rdf="http://www.w3.org/1999/02/22-rdf-syntax-ns#" xmlns="http://www.w3.org/2000/svg" height="478.66" width="675.18" version="1.0" xmlns:cc="http://creativecommons.org/ns#" xmlns:dc="http://purl.org/dc/elements/1.1/">
 <metadata id="metadata7">
  <rdf:RDF>
   <cc:Work rdf:about="">
    <dc:format>image/svg+xml</dc:format>
    <dc:type rdf:resource="http://purl.org/dc/dcmitype/StillImage"/>
   </cc:Work>
  </rdf:RDF>
 </metadata>
 <g id="layer1" transform="translate(-42.98 -252.93)">
  <path id="path2516" d="m713.31 433.03c9.05 120.63 1.73 205.97-17.48 254.42-28.1 70.91-74.46 42.55-90.47-0.61-10.95-29.52-13.27-146.57-13.87-155.01-0.61-8.44 122.43-98.2 121.82-98.8z" fill-rule="evenodd" stroke="#000" stroke-width="2" fill="#3c3760"/>
  <path class="button l" id="path3209" d="m110.59 326.87c11.76-47.06 46.27-59.61 90.19-45.49 43.93 14.12-88.62 45.49-90.19 45.49z" fill-rule="evenodd" stroke="#000" stroke-width="2" fill="#ccc"/>
  <path class="button r" id="path3273" d="m648.13 326.87c-11.76-47.06-46.27-59.61-90.19-45.49-43.93 14.12 88.62 45.49 90.19 45.49z" fill-rule="evenodd" stroke="#000" stroke-width="2" fill="#ccc"/>
  <path class="button z" id="path3275" d="m539.08 282.8c2.06-4.06 6.22-3.84 16.99-3.45 28.5 1.05 73.21 20.49 85.05 29.89 7.85 6.22 8.68 10.4 5.48 18.62l-107.52-45.06z" fill-rule="evenodd" stroke="#000" fill="#0000c0"/>
  <path id="path3211" d="m115.29 324.52l83.18 196.86c63.27-35.51 140.38-47.06 181.53-47.06s117.83 11.31 181.53 47.06l83.18-196.86c-92.89-53.63-204.71-70.59-264.71-70.59-31.84 0-78.46 4.88-128.99 17.42-44.68 11.09-92.42 28.17-135.72 53.17z" fill-rule="evenodd" stroke="#000" stroke-width="2" fill="#463f6f"/>
  <path id="path3610" d="m283.12 486.95c65-17.44 123.36-20.24 183.06-0.92l3.21-1.92c-49.4-24.07-130.9-21.77-186.95 0.56l0.68 2.28z" fill-rule="evenodd" fill="#59518e"/>
  <path id="path3319" d="m115.29 325.3l53.38-16.33c63.27-35.51 170.97-47.06 212.11-47.06 41.15 0 143.72 11.31 207.42 47.06l56.51 16.33c-92.89-53.62-204.71-70.58-264.71-70.58-31.84 0-78.46 4.87-128.99 17.42-44.68 11.09-92.42 28.17-135.72 53.16z" fill-rule="evenodd" fill="#6b61ab"/>
  <path id="path3241" d="m47.83 433.03c-9.047 120.63-1.723 205.97 17.481 254.42 28.108 70.91 74.459 42.55 90.479-0.61 10.95-29.52 13.27-146.57 13.87-155.01s-122.43-98.2-121.83-98.8z" fill-rule="evenodd" stroke="#000" stroke-width="2" fill="#3c3760"/>
  <path id="path3263" stroke-linejoin="round" d="m649.03 537.01c-37.62 20.68-65.67 34.69-75.69 72.78-10.01 38.1-42.93 62.18-81.97 62.18-46.97 0-85.1-38.12-85.1-85.1 0-20.7 7.41-39.67 19.7-54.43 12.3-14.76 43.05-34.93 43.05-102.04 0-67.1 54.46-121.57 121.57-121.57 67.1 0 121.57 54.47 121.57 121.57 0 45.93-25.51 85.94-63.13 106.61z" fill-rule="evenodd" stroke="#000" stroke-linecap="round" stroke-width="2" fill="#4e477c"/>
  <path id="path3187" stroke-linejoin="round" d="m109.4 537.01c37.62 20.68 65.67 34.69 75.69 72.78 10.01 38.1 42.94 62.18 81.97 62.18 46.97 0 85.1-38.12 85.1-85.1 0-20.7-7.4-39.67-19.7-54.43s-43.05-34.93-43.05-102.04c0-67.1-54.46-121.57-121.57-121.57-67.1 0-121.56 54.47-121.56 121.57-0.005 45.93 25.506 85.94 63.12 106.61z" fill-rule="evenodd" stroke="#000" stroke-linecap="round" stroke-width="2" fill="#4e477c"/>
  <path id="path3191" stroke-linejoin="round" d="m281.57 436.68a121.57 121.57 0 1 1 -243.14 0 121.57 121.57 0 1 1 243.14 0z" fill-rule="evenodd" transform="matrix(.67154 0 0 .67154 60.397 137.16)" stroke="#000" stroke-linecap="round" stroke-width="2.9782" fill="#5a518f"/>
  <path id="path3193" stroke-linejoin="round" d="m359.22 586.09a85.098 85.098 0 1 1 -170.2 0 85.098 85.098 0 1 1 170.2 0z" fill-rule="evenodd" transform="matrix(.67414 0 0 .67414 82.264 191.76)" stroke="#000" stroke-linecap="round" stroke-width="2.9667" fill="#3b365f"/>
  <path id="path3199" stroke-linejoin="round" d="m281.57 436.68a121.57 121.57 0 1 1 -243.14 0 121.57 121.57 0 1 1 243.14 0z" fill-rule="evenodd" transform="matrix(-.61081 0 0 .61081 690.67 163.68)" stroke="#000" stroke-linecap="round" stroke-width="3.2744" fill="#5b5290"/>
  <path class="button a" id="path3203" stroke-linejoin="round" d="m281.57 436.68a121.57 121.57 0 1 1 -243.14 0 121.57 121.57 0 1 1 243.14 0z" fill-rule="evenodd" transform="matrix(-.32315 0 0 .32315 644.65 289.29)" stroke="#000" stroke-linecap="round" stroke-width="6.1891" fill="#0f0"/>
  <path class="button b" id="path3205" stroke-linejoin="round" d="m281.57 436.68a121.57 121.57 0 1 1 -243.14 0 121.57 121.57 0 1 1 243.14 0z" fill-rule="evenodd" transform="matrix(-.19412 0 0 .19412 550.27 385.63)" stroke="#000" stroke-linecap="round" stroke-width="10.303" fill="#f00"/>
  <path class="button start" id="path3207" stroke-linejoin="round" d="m383.53 410.01a16.471 16.471 0 1 1 -32.94 0 16.471 16.471 0 1 1 32.94 0z" fill-rule="evenodd" transform="matrix(.95238 0 0 .95238 31.597 43.054)" stroke="#000" stroke-linecap="round" stroke-width="2.1" fill="#b3b3b3"/>
  <path class="button y" id="path3232" stroke-linejoin="round" d="m600.14 364.07c17.22-0.55 15.04-22.31-0.24-27.11-15.27-4.79-39.84-1.05-51.17 11.65-11.32 12.7-1.04 31.65 11.02 25.44s23.17-9.43 40.39-9.98z" fill-rule="evenodd" stroke="#000" stroke-linecap="round" stroke-width="2" fill="#ccc"/>
  <path id="path3243" stroke-linejoin="round" stroke="#000" stroke-linecap="round" stroke-width="3.223" fill="#5a5a5a" d="m262.44 428.69l-18.52 58.46-49.87 35.68-61.33 0.45-49.343-36.41-19.38-58.18 19.38-58.18 49.343-36.41 61.33 0.45 49.87 35.68 18.52 58.46z" fill-rule="evenodd" transform="matrix(0 -.62071 .62035 0 -98.095 531.71)"/>
  <path id="path3245" stroke-linejoin="round" stroke="#000" stroke-linecap="round" stroke-width="3.4498" fill="#c2c200" d="m262.44 428.69l-18.52 58.46-49.87 35.68-61.33 0.45-49.343-36.41-19.38-58.18 19.38-58.18 49.343-36.41 61.33 0.45 49.87 35.68 18.52 58.46z" fill-rule="evenodd" transform="matrix(0 -.58001 .57947 0 245.31 681.54)"/>
  <path class="stick c" id="path3247" stroke-linejoin="round" d="m359.22 586.09a85.098 85.098 0 1 1 -170.2 0 85.098 85.098 0 1 1 170.2 0z" fill-rule="evenodd" transform="matrix(-.36918 0 0 .36918 594.92 370.5)" stroke="#000" stroke-linecap="round" stroke-width="5.4174" fill="#ff0"/>
  <path class="stick l" id="path3258" stroke-linejoin="round" d="m281.57 436.68a121.57 121.57 0 1 1 -243.14 0 121.57 121.57 0 1 1 243.14 0z" fill-rule="evenodd" transform="matrix(.4 0 0 .4 103.84 255.73)" stroke="#000" stroke-linecap="round" stroke-width="5" fill="#ccc"/>
  <path class="stick l" id="path3295" stroke-linejoin="round" d="m281.57 436.68a121.57 121.57 0 1 1 -243.14 0 121.57 121.57 0 1 1 243.14 0z" transform="matrix(.32056 0 0 .32056 116.55 290.42)" stroke="#797979" stroke-linecap="round" stroke-width="6.2391" fill="none"/>
  <path class="stick l" id="path3297" stroke-linejoin="round" d="m281.57 436.68a121.57 121.57 0 1 1 -243.14 0 121.57 121.57 0 1 1 243.14 0z" transform="matrix(.22554 0 0 .22554 131.76 331.91)" stroke="#797979" stroke-linecap="round" stroke-width="8.8677" fill="none"/>
  <path class="stick l" id="path3301" stroke-linejoin="round" d="m281.57 436.68a121.57 121.57 0 1 1 -243.14 0 121.57 121.57 0 1 1 243.14 0z" transform="matrix(.11157 0 0 .11157 149.99 381.68)" stroke="#797979" stroke-linecap="round" stroke-width="17.925" fill="none"/>
  <path id="text3303" fill-opacity=".64088" d="m592.93 420.28l-2.91 10.44h5.83l-2.92-10.44m-1.66-2.44h3.35l6.24 20.41h-2.85l-1.51-5.31h-7.15l-1.47 5.31h-2.86l6.25-20.41"/>
  <path id="text3307" fill-opacity=".64088" d="m515.53 470.86v7.48h3.27c1.6 0 2.75-0.28 3.43-0.84s1.03-1.49 1.03-2.77c0-1.33-0.36-2.31-1.08-2.93-0.72-0.63-1.85-0.94-3.38-0.94h-3.27m0-8.4v6.16h3.21c1.33 0 2.3-0.26 2.89-0.77 0.6-0.51 0.9-1.33 0.9-2.47 0-1.03-0.3-1.78-0.89-2.23-0.58-0.46-1.55-0.69-2.9-0.69h-3.21m-2.77-2.26h6.04c2.09 0 3.69 0.45 4.82 1.35 1.14 0.9 1.7 2.18 1.7 3.83 0 1.25-0.3 2.23-0.9 2.95-0.59 0.72-1.49 1.17-2.68 1.35 1.34 0.2 2.39 0.78 3.14 1.73 0.77 0.94 1.15 2.13 1.15 3.59 0 1.85-0.61 3.25-1.82 4.2-1.21 0.94-3.01 1.41-5.41 1.41h-6.04v-20.41"/>
  <path id="text3311" fill-opacity=".64088" d="m569.34 341.75h2.94l4.97 9.01 4.97-9.01h2.96l-6.54 11.26v9.16h-2.78v-9.16l-6.52-11.26"/>
  <path class="button x" id="path3237" stroke-linejoin="round" d="m661.93 434.59c0.82 17.22 22.54 14.69 27.1-0.66 4.55-15.35 0.42-39.86-12.45-50.98-12.88-11.12-31.67-0.55-25.27 11.41s9.8 23.02 10.62 40.23z" fill-rule="evenodd" stroke="#000" stroke-linecap="round" stroke-width="2" fill="#ccc"/>
  <path id="text3315" fill-opacity=".64088" d="m666.9 401.75h2.97l4.48 7.7 4.57-7.7h2.97l-6.11 9.6 6.55 10.81h-2.97l-5.01-8.79-5.4 8.79h-2.98l6.84-10.81-5.91-9.6"/>
  <path id="rect3249" stroke-linejoin="round" d="m255.09 540.11c-2 0-3.59 1.46-3.59 3.28v27.9h-27.91c-1.82 0-3.28 1.62-3.28 3.63v23.91c0 2 1.46 3.62 3.28 3.62h27.91v27.91c0 1.81 1.59 3.28 3.59 3.28h23.94c2 0 3.62-1.47 3.62-3.28v-27.91h27.88c1.81 0 3.28-1.62 3.28-3.62v-23.91c0-2.01-1.47-3.63-3.28-3.63h-27.88v-27.9c0-1.82-1.62-3.28-3.62-3.28h-23.94z" fill-rule="evenodd" stroke="#000" stroke-linecap="round" stroke-width="2" fill="#9e9e9e"/>
  <path id="path4071" d="m279.06 543.38c0 0.33 0.22 0.31-0.03 0.31h-23.94v27.59c0 1.98-1.61 3.59-3.59 3.6h-27.91c0.33 0 0.32-0.22 0.32 0.03v23.9c0 0.25 0.01 0.03-0.32 0.03h27.91c1.98 0.01 3.59 1.62 3.59 3.6v27.59h23.94c0.25 0 0.03-0.02 0.03 0.31v-27.9c0.01-1.98 1.62-3.59 3.6-3.6h27.87c-0.33 0-0.31 0.22-0.31-0.03v-23.9c0-0.25-0.02-0.03 0.31-0.03h-27.87c-1.98-0.01-3.59-1.62-3.6-3.6v-27.9z" fill-rule="evenodd" fill="#ccc"/>
  <path id="path3254" d="m281.19 588.16a15.812 15.812 0 1 1 -31.62 0 15.812 15.812 0 1 1 31.62 0z" fill-rule="evenodd" transform="matrix(.71642 0 0 .71642 76.937 165.51)" fill="#808080"/>
  <path class="button up" id="path2449" d="m266.99 547.28c-0.44 0.02-0.83 0.27-1.05 0.64l-9.01 15.6c-0.23 0.4-0.23 0.89 0 1.29s0.66 0.65 1.12 0.65h18.02c0.46 0 0.88-0.25 1.11-0.65s0.23-0.89 0-1.29l-9.01-15.6c-0.24-0.42-0.7-0.66-1.18-0.64z" fill-rule="evenodd" fill="#808080"/>
  <path class="button down" id="path2452" d="m266.99 626.46c-0.44-0.02-0.83-0.26-1.05-0.64l-9.01-15.6c-0.23-0.4-0.23-0.89 0-1.29s0.66-0.64 1.12-0.64h18.02c0.46 0 0.88 0.24 1.11 0.64s0.23 0.89 0 1.29l-9.01 15.6c-0.24 0.42-0.7 0.67-1.18 0.64z" fill-rule="evenodd" fill="#808080"/>
  <path class="button right" id="path3230" d="m306.65 586.8c-0.02-0.43-0.26-0.83-0.64-1.05l-15.6-9c-0.4-0.23-0.89-0.23-1.29 0s-0.65 0.65-0.65 1.11v18.02c0 0.46 0.25 0.89 0.65 1.12s0.89 0.23 1.29 0l15.6-9.01c0.42-0.25 0.66-0.7 0.64-1.19z" fill-rule="evenodd" fill="#808080"/>
  <path class="button left" id="path3233" d="m227.47 586.8c0.02-0.43 0.26-0.83 0.64-1.05l15.6-9c0.4-0.23 0.89-0.23 1.29 0s0.64 0.65 0.64 1.11v18.02c0 0.46-0.24 0.89-0.64 1.12s-0.89 0.23-1.29 0l-15.6-9.01c-0.42-0.25-0.67-0.7-0.64-1.19z" fill-rule="evenodd" fill="#808080"/>
  <path id="text4027" d="m345.51 394.92v1.27c-0.38-0.24-0.76-0.42-1.14-0.55-0.38-0.12-0.77-0.18-1.15-0.18-0.59 0-1.06 0.13-1.4 0.41-0.34 0.27-0.51 0.64-0.51 1.11 0 0.41 0.11 0.72 0.33 0.93 0.23 0.21 0.65 0.39 1.26 0.54l0.66 0.15c0.86 0.2 1.49 0.52 1.89 0.95 0.39 0.43 0.59 1.02 0.59 1.77 0 0.88-0.27 1.55-0.81 2.01-0.55 0.46-1.34 0.69-2.38 0.69-0.43 0-0.87-0.05-1.3-0.14-0.44-0.09-0.88-0.23-1.32-0.42v-1.33c0.47 0.3 0.92 0.53 1.34 0.67 0.43 0.14 0.85 0.21 1.28 0.21 0.63 0 1.12-0.14 1.47-0.43 0.35-0.28 0.53-0.68 0.53-1.18 0-0.46-0.12-0.82-0.37-1.06-0.24-0.24-0.65-0.43-1.25-0.56l-0.67-0.16c-0.86-0.19-1.48-0.48-1.87-0.87-0.38-0.4-0.58-0.92-0.58-1.58 0-0.83 0.28-1.49 0.83-1.98 0.56-0.5 1.3-0.75 2.21-0.75 0.36 0 0.73 0.04 1.12 0.13 0.39 0.07 0.81 0.19 1.24 0.35m1.65-0.31h7.04v1.05h-2.88v8.18h-1.26v-8.18h-2.9v-1.05m11.14 1.1l-1.32 4.72h2.63l-1.31-4.72m-0.76-1.1h1.52l2.82 9.23h-1.29l-0.68-2.41h-3.23l-0.67 2.41h-1.29l2.82-9.23m9.26 4.87c0.33 0.08 0.6 0.24 0.83 0.47 0.22 0.23 0.51 0.68 0.84 1.37l1.26 2.52h-1.34l-1.1-2.33c-0.32-0.66-0.61-1.09-0.86-1.28s-0.58-0.29-0.99-0.29h-1.2v3.9h-1.25v-9.23h2.57c1.02 0 1.79 0.23 2.33 0.69 0.54 0.45 0.81 1.11 0.81 1.98 0 0.61-0.16 1.11-0.5 1.5-0.33 0.38-0.79 0.61-1.4 0.7m-2.56-3.84v3.27h1.37c0.6 0 1.04-0.13 1.34-0.4 0.29-0.27 0.44-0.68 0.44-1.23 0-0.53-0.16-0.94-0.47-1.22s-0.77-0.42-1.36-0.42h-1.32m5.77-1.03h7.05v1.05h-2.89v8.18h-1.26v-8.18h-2.9v-1.05m12.83 0h1.17l-4.86 10.4h-1.18l4.87-10.4m4.58 1.03v3.46h1.45c0.58 0 1.03-0.15 1.35-0.45 0.32-0.31 0.49-0.74 0.49-1.28 0-0.55-0.16-0.98-0.48-1.28-0.33-0.3-0.78-0.45-1.36-0.45h-1.45m-1.24-1.03h2.69c1.03 0 1.81 0.23 2.34 0.7 0.54 0.47 0.8 1.15 0.8 2.06s-0.26 1.6-0.8 2.06c-0.52 0.47-1.3 0.7-2.34 0.7h-1.45v3.71h-1.24v-9.23m10.2 1.1l-1.31 4.72h2.63l-1.32-4.72m-0.75-1.1h1.51l2.83 9.23h-1.29l-0.68-2.41h-3.24l-0.66 2.41h-1.3l2.83-9.23m5.47 5.69v-5.69h1.26v6.26c0 0.45 0.01 0.77 0.03 0.96 0.03 0.19 0.07 0.34 0.13 0.44 0.14 0.24 0.32 0.43 0.57 0.55s0.56 0.19 0.91 0.19c0.36 0 0.66-0.07 0.91-0.19s0.44-0.31 0.57-0.55c0.07-0.1 0.11-0.25 0.13-0.44 0.03-0.19 0.04-0.51 0.04-0.95v-6.27h1.25v5.69c0 0.94-0.06 1.61-0.18 2.01-0.11 0.4-0.32 0.73-0.6 0.99-0.28 0.24-0.59 0.42-0.94 0.54s-0.74 0.18-1.18 0.18c-0.43 0-0.82-0.06-1.17-0.18s-0.67-0.3-0.94-0.54c-0.29-0.26-0.49-0.59-0.61-0.99-0.12-0.41-0.18-1.08-0.18-2.01m12.97-5.38v1.27c-0.38-0.24-0.76-0.42-1.15-0.55-0.38-0.12-0.76-0.18-1.15-0.18-0.59 0-1.05 0.13-1.39 0.41-0.35 0.27-0.52 0.64-0.52 1.11 0 0.41 0.11 0.72 0.34 0.93 0.22 0.21 0.64 0.39 1.26 0.54l0.65 0.15c0.87 0.2 1.5 0.52 1.89 0.95 0.4 0.43 0.6 1.02 0.6 1.77 0 0.88-0.27 1.55-0.82 2.01-0.54 0.46-1.33 0.69-2.37 0.69-0.43 0-0.87-0.05-1.31-0.14-0.43-0.09-0.87-0.23-1.31-0.42v-1.33c0.47 0.3 0.92 0.53 1.34 0.67s0.85 0.21 1.28 0.21c0.63 0 1.12-0.14 1.47-0.43 0.35-0.28 0.53-0.68 0.53-1.18 0-0.46-0.13-0.82-0.37-1.06s-0.66-0.43-1.25-0.56l-0.67-0.16c-0.86-0.19-1.48-0.48-1.87-0.87-0.39-0.4-0.58-0.92-0.58-1.58 0-0.83 0.28-1.49 0.83-1.98 0.55-0.5 1.29-0.75 2.21-0.75 0.36 0 0.73 0.04 1.12 0.13 0.39 0.07 0.8 0.19 1.24 0.35m2.58-0.31h5.47v1.05h-4.23v2.73h4.05v1.05h-4.05v3.35h4.35v1.05h-5.59v-9.23"/>
  <path  class="stick c" id="text4053" fill-opacity=".64088" d="m500.11 595.65c-0.7 0.38-1.42 0.65-2.16 0.84s-1.52 0.28-2.35 0.28c-2.62 0-4.65-0.92-6.1-2.77-1.44-1.85-2.16-4.45-2.16-7.81 0-3.33 0.73-5.93 2.17-7.79 1.46-1.87 3.49-2.8 6.09-2.8 0.83 0 1.61 0.09 2.35 0.28 0.74 0.18 1.46 0.46 2.16 0.84v2.83c-0.67-0.56-1.4-0.98-2.17-1.28-0.78-0.29-1.56-0.43-2.34-0.43-1.8 0-3.14 0.69-4.03 2.08-0.9 1.38-1.34 3.47-1.34 6.27 0 2.79 0.44 4.88 1.34 6.26 0.89 1.39 2.23 2.08 4.03 2.08 0.8 0 1.58-0.15 2.35-0.44s1.49-0.71 2.16-1.27v2.83"/>
  <path id="path4073" d="m281.19 588.16a15.812 15.812 0 1 1 -31.62 0 15.812 15.812 0 1 1 31.62 0z" fill-rule="evenodd" transform="matrix(.46840 0 0 .46840 142.75 311.38)" fill="#6a6a6a"/>
 </g>
 <text y="60" x="290" fill="black" style="font-size: 2em; font-weight: 900;" class="port">Port <tspan class="port num"></tspan></text>
</svg>
